<?xml version="1.0" standalone="no"?>
<!DOCTYPE svg PUBLIC "-//W3C//DTD SVG 20010904//EN"
 "http://www.w3.org/TR/2001/REC-SVG-20010904/DTD/svg10.dtd">
<svg version="1.0" xmlns="http://www.w3.org/2000/svg"
 width="212.000000pt" height="205.000000pt" viewBox="0 0 212.000000 205.000000"
 preserveAspectRatio="xMidYMid meet">
<metadata>
Created by potrace 1.15, written by Peter Selinger 2001-2017
</metadata>
<g transform="translate(0.000000,205.000000) scale(0.100000,-0.100000)"
fill="#000000" stroke="none">
<path d="M150 1025 l0 -905 355 0 355 0 0 25 0 25 -335 0 -335 0 0 860 0 860
860 0 860 0 0 -490 c0 -483 0 -490 20 -490 20 0 20 7 20 510 l0 510 -900 0
-900 0 0 -905z"/>
<path d="M737 863 c-4 -3 -7 -15 -7 -25 0 -16 10 -18 120 -18 l120 0 0 -35 0
-35 -121 0 c-119 0 -120 0 -117 -22 3 -22 7 -23 121 -26 l117 -3 0 -279 0
-280 25 0 25 0 0 340 0 340 174 0 c172 0 175 0 203 25 l28 24 -341 1 c-187 0
-344 -3 -347 -7z"/>
<path d="M1533 856 c-104 -34 -185 -106 -232 -205 -22 -47 -26 -70 -26 -146 0
-77 4 -98 27 -147 34 -74 112 -152 186 -186 50 -24 69 -27 157 -27 89 0 106 3
156 27 30 15 73 43 95 62 37 32 38 35 22 52 -16 16 -19 15 -55 -13 -80 -63
-120 -77 -218 -77 -78 0 -97 3 -142 27 -72 37 -114 76 -149 139 -26 48 -29 62
-29 143 0 74 4 97 23 133 33 63 84 114 144 148 49 27 61 29 153 29 110 0 148
-13 220 -77 34 -29 37 -30 53 -15 15 16 14 19 -13 47 -17 17 -59 45 -94 63
-54 26 -77 31 -150 34 -54 2 -102 -2 -128 -11z"/>
<path d="M1554 744 c-144 -51 -211 -220 -138 -353 79 -147 270 -181 404 -72
23 18 24 21 9 36 -15 15 -20 13 -69 -17 -204 -126 -428 120 -274 301 69 80
192 94 281 32 42 -30 47 -31 62 -16 15 15 13 19 -18 45 -67 57 -171 74 -257
44z"/>
<path d="M1090 445 l0 -305 25 0 25 0 0 280 0 280 63 0 c49 0 68 4 80 18 10
10 17 22 17 25 0 4 -47 7 -105 7 l-105 0 0 -305z"/>
</g>
</svg>
